<?xml version="1.0" encoding="UTF-8" standalone="no"?>
<!-- Created with Inkscape (http://www.inkscape.org/) -->

<svg
   xmlns:dc="http://purl.org/dc/elements/1.1/"
   xmlns:cc="http://creativecommons.org/ns#"
   xmlns:rdf="http://www.w3.org/1999/02/22-rdf-syntax-ns#"
   xmlns:svg="http://www.w3.org/2000/svg"
   xmlns="http://www.w3.org/2000/svg"
   xmlns:sodipodi="http://sodipodi.sourceforge.net/DTD/sodipodi-0.dtd"
   xmlns:inkscape="http://www.inkscape.org/namespaces/inkscape"
   width="420mm"
   height="297mm"
   viewBox="0 0 1488.189 1052.3622"
   id="svg2"
   version="1.1"
   inkscape:version="0.91 r13725"
   sodipodi:docname="we_love_electric_path.svg">
  <defs
     id="defs4">
    <inkscape:path-effect
       effect="skeletal"
       id="path-effect5408"
       is_visible="true"
       pattern="M 17.216536,92.005508 A 8.3582678,8.3582678 0 0 1 8.8582678,100.36378 8.3582678,8.3582678 0 0 1 0.5,92.005508 8.3582678,8.3582678 0 0 1 8.8582678,83.647241 8.3582678,8.3582678 0 0 1 17.216536,92.005508 Z"
       copytype="repeated"
       prop_scale="1"
       scale_y_rel="false"
       spacing="3.8"
       normal_offset="0"
       tang_offset="-0.3"
       prop_units="true"
       vertical_pattern="false"
       fuse_tolerance="0" />
    <inkscape:path-effect
       effect="skeletal"
       id="path-effect5333"
       is_visible="true"
       pattern="M 17.216536,8.858267 A 8.3582678,8.3582678 0 0 1 8.8582678,17.216539 8.3582678,8.3582678 0 0 1 0.5,8.858267 8.3582678,8.3582678 0 0 1 8.8582678,0.5 8.3582678,8.3582678 0 0 1 17.216536,8.858267 Z"
       copytype="repeated"
       prop_scale="1"
       scale_y_rel="false"
       spacing="5.8"
       normal_offset="0"
       tang_offset="0.3"
       prop_units="true"
       vertical_pattern="false"
       fuse_tolerance="0" />
    <inkscape:path-effect
       effect="skeletal"
       id="path-effect5275"
       is_visible="true"
       pattern="M 17.216536,8.858267 A 8.3582678,8.3582678 0 0 1 8.8582678,17.216539 8.3582678,8.3582678 0 0 1 0.5,8.858267 8.3582678,8.3582678 0 0 1 8.8582678,0.5 8.3582678,8.3582678 0 0 1 17.216536,8.858267 Z"
       copytype="repeated"
       prop_scale="0.32"
       scale_y_rel="false"
       spacing="0"
       normal_offset="0"
       tang_offset="0"
       prop_units="false"
       vertical_pattern="false"
       fuse_tolerance="0" />
    <inkscape:path-effect
       effect="skeletal"
       id="path-effect4560"
       is_visible="true"
       pattern="M 0,0 1,0"
       copytype="single_stretched"
       prop_scale="1"
       scale_y_rel="false"
       spacing="0"
       normal_offset="0"
       tang_offset="0"
       prop_units="false"
       vertical_pattern="false"
       fuse_tolerance="0" />
    <inkscape:path-effect
       effect="skeletal"
       id="path-effect4541"
       is_visible="true"
       pattern="M 0,0 1,0"
       copytype="repeated"
       prop_scale="1"
       scale_y_rel="false"
       spacing="0"
       normal_offset="0"
       tang_offset="0"
       prop_units="false"
       vertical_pattern="false"
       fuse_tolerance="0" />
  </defs>
  <sodipodi:namedview
     id="base"
     pagecolor="#ffffff"
     bordercolor="#666666"
     borderopacity="1.0"
     inkscape:pageopacity="0.0"
     inkscape:pageshadow="2"
     inkscape:zoom="0.48937523"
     inkscape:cx="744.09449"
     inkscape:cy="526.1811"
     inkscape:document-units="mm"
     inkscape:current-layer="layer3"
     showgrid="false"
     showguides="true"
     inkscape:guide-bbox="true"
     inkscape:snap-bbox="true"
     inkscape:bbox-paths="false"
     inkscape:bbox-nodes="false"
     inkscape:snap-bbox-edge-midpoints="false"
     inkscape:snap-bbox-midpoints="false"
     inkscape:object-paths="true"
     inkscape:snap-intersection-paths="true"
     inkscape:object-nodes="true"
     inkscape:snap-smooth-nodes="true"
     inkscape:snap-midpoints="true"
     inkscape:snap-object-midpoints="false"
     inkscape:snap-center="true"
     inkscape:snap-global="false"
     inkscape:window-width="1366"
     inkscape:window-height="704"
     inkscape:window-x="0"
     inkscape:window-y="27"
     inkscape:window-maximized="1"
     inkscape:snap-page="true"
     inkscape:snap-text-baseline="true"
     inkscape:snap-others="false">
    <inkscape:grid
       type="xygrid"
       id="grid21104"
       units="mm"
       spacingx="17.716536"
       spacingy="17.716535"
       empspacing="2"
       originx="0"
       originy="0" />
    <sodipodi:guide
       position="36.183072,1016.1792"
       orientation="979.99609,0"
       id="guide6780" />
    <sodipodi:guide
       position="36.183072,36.183048"
       orientation="0,1415.8229"
       id="guide6782" />
    <sodipodi:guide
       position="1452.006,36.183048"
       orientation="-979.99609,0"
       id="guide6784" />
    <sodipodi:guide
       position="3368.1079,1016.0325"
       orientation="0,-1415.8229"
       id="guide6786" />
  </sodipodi:namedview>
  <metadata
     id="metadata7">
    <rdf:RDF>
      <cc:Work
         rdf:about="">
        <dc:format>image/svg+xml</dc:format>
        <dc:type
           rdf:resource="http://purl.org/dc/dcmitype/StillImage" />
        <dc:title></dc:title>
      </cc:Work>
    </rdf:RDF>
  </metadata>
  <g
     inkscape:groupmode="layer"
     id="layer3"
     inkscape:label="trace">
    <path
       style="color:#000000;font-style:normal;font-variant:normal;font-weight:normal;font-stretch:normal;font-size:medium;line-height:normal;font-family:sans-serif;text-indent:0;text-align:start;text-decoration:none;text-decoration-line:none;text-decoration-style:solid;text-decoration-color:#000000;letter-spacing:normal;word-spacing:normal;text-transform:none;direction:ltr;block-progression:tb;writing-mode:lr-tb;baseline-shift:baseline;text-anchor:start;white-space:normal;clip-rule:nonzero;display:inline;overflow:visible;visibility:visible;opacity:0.98999999;isolation:auto;mix-blend-mode:normal;color-interpolation:sRGB;color-interpolation-filters:linearRGB;solid-color:#000000;solid-opacity:1;fill:#000000;fill-opacity:1;fill-rule:nonzero;stroke:none;stroke-width:1;stroke-linecap:square;stroke-linejoin:miter;stroke-miterlimit:2.4545455;stroke-dasharray:none;stroke-dashoffset:0;stroke-opacity:1;color-rendering:auto;image-rendering:auto;shape-rendering:auto;text-rendering:auto;enable-background:accumulate"
       d="M 777.24414 41.367188 C 771.60664 41.367188 765.55508 43.704297 760.33008 47.279297 C 757.85508 49.066797 756.34258 49.065625 755.51758 49.203125 C 754.83008 49.203125 754.41914 49.066406 753.86914 49.066406 C 750.56914 49.066406 742.73125 61.167187 726.78125 91.554688 L 725.68164 91.140625 C 725.81914 90.315625 725.81758 89.354297 725.95508 88.529297 C 726.36758 80.829297 721.69258 72.853516 714.95508 72.853516 C 712.89258 72.853516 710.69414 73.541406 708.49414 75.191406 C 701.20664 82.891406 699.14258 85.504688 695.01758 91.554688 C 694.33008 92.104686 693.78086 92.242187 693.50586 92.242188 C 692.95586 92.242188 692.68086 91.691016 692.81836 90.728516 C 692.95586 88.116016 694.88047 82.478125 695.29297 80.140625 C 696.80547 70.515625 698.45508 67.628125 700.51758 54.703125 C 700.65508 54.015625 700.79297 53.466797 700.79297 52.779297 C 700.93047 49.754297 698.59297 47.691406 695.29297 47.691406 C 689.51797 47.691406 680.71758 53.053906 675.08008 68.316406 L 675.08008 68.179688 L 670.40625 82.890625 C 664.35625 101.72812 658.03047 123.59219 655.41797 146.55469 C 656.24297 152.60469 661.60625 153.97852 666.96875 153.97852 L 668.48047 153.97852 C 673.29297 153.42852 679.89336 148.06562 685.25586 143.39062 L 691.58008 138.44141 L 692.95508 148.20312 C 694.46758 152.74062 698.86758 155.2168 703.95508 155.2168 C 708.63008 155.2168 714.26914 153.01719 718.11914 149.30469 C 739.15664 129.77969 752.08086 106.2664 767.75586 84.128906 C 773.66836 76.291406 780.13125 64.191016 787.28125 56.353516 L 787.14258 56.353516 L 788.38086 54.291016 C 788.65586 53.878516 788.79297 54.016797 789.48047 52.091797 C 789.06797 44.391797 783.84414 41.367188 777.24414 41.367188 z M 843.13477 42.742188 C 831.85977 42.742188 816.73477 47.141016 802.57227 52.228516 C 796.93477 54.841016 798.30859 64.191016 794.18359 70.103516 C 774.52109 98.153516 762.1457 120.15391 756.7832 148.75391 C 756.6457 149.16641 756.50977 149.57969 756.50977 149.99219 C 755.95977 160.02969 774.65859 159.06641 780.43359 159.06641 C 787.72109 159.06641 793.90977 158.1043 802.57227 155.9043 L 802.43359 155.9043 C 810.27109 153.1543 817.8332 145.5918 817.9707 142.8418 C 817.9707 142.4293 817.83477 142.15312 817.69727 142.01562 C 815.63477 141.05312 814.94648 139.67969 815.08398 138.30469 C 815.08398 137.34219 815.49727 136.37852 815.63477 135.41602 C 815.63477 134.45352 815.22148 133.49219 813.70898 132.80469 C 808.07148 133.49219 804.77109 133.9043 801.05859 133.9043 C 799.27109 133.9043 788.40937 134.04062 788.54688 131.70312 C 788.82187 127.71563 797.20977 115.8918 800.50977 111.9043 C 810.13477 111.3543 806.28359 111.2168 813.43359 109.8418 L 813.29688 109.8418 C 821.27188 107.2293 826.49609 100.35429 829.24609 94.716797 C 829.52109 94.166797 829.79688 93.616797 829.79688 93.341797 C 829.79688 92.241797 828.83398 91.966797 827.45898 91.966797 C 824.29648 91.966797 819.34609 93.203125 814.80859 93.203125 C 813.29609 93.203125 811.6457 92.928516 809.7207 92.103516 L 811.37109 88.529297 C 813.02109 84.679297 815.3582 81.240625 818.6582 77.390625 L 819.48438 76.429688 C 822.92188 72.304688 826.4957 71.066797 836.5332 68.591797 C 847.8082 66.941797 856.47109 56.767188 856.74609 49.617188 C 857.02109 46.179688 854.95977 43.428516 850.00977 43.291016 L 849.87109 43.291016 C 847.67109 43.016016 845.33477 42.742187 843.13477 42.742188 z M 393.61719 52.873047 C 379.38259 52.972247 366.07819 62.257194 361.69922 76.492188 C 356.30973 94.01218 366.32285 112.90686 383.84766 118.28125 C 388.62337 119.74583 393.50009 120.05919 398.17969 119.39648 L 406.01758 135.39258 L 392.58594 174.57617 L 404.8125 199.53516 C 390.27355 219.88788 380.22104 245.27901 375.41992 276.0918 L 288.21875 249.34961 L 242.37305 162.84766 L 172.77148 141.50195 C 171.3329 123.80915 159.33315 107.77178 141.45508 102.28906 C 118.08868 95.123214 92.877398 108.48767 85.691406 131.84766 C 78.505416 155.20764 91.854306 180.40055 115.2207 187.56641 C 132.90871 192.99084 151.64735 186.64283 162.83008 173.10742 L 219.53125 190.49609 L 265.37695 276.99805 L 297.43164 286.82812 L 257.02344 308.25 L 164.65234 279.92188 C 163.63334 266.58846 154.61518 254.48027 141.15234 250.35156 C 123.62753 244.97719 104.71956 255.00148 99.330078 272.52148 C 93.940576 290.04147 103.95176 308.9342 121.47656 314.30859 C 134.68915 318.36053 148.68519 313.65671 157.08398 303.58984 L 259.57227 335.02148 L 331.04102 297.13477 L 372.36328 309.80664 C 372.25445 313.2301 372.18945 316.69782 372.18945 320.23047 C 372.18945 360.16836 389.35317 408.68743 416.29492 460.25391 L 354.39258 479.54883 L 265.83789 433.01367 L 192.57812 455.84961 C 187.2354 449.42858 180.07007 444.42891 171.57031 441.82227 C 148.2039 434.65642 122.99263 448.02087 115.80664 471.38086 C 108.62064 494.74085 121.97148 519.93181 145.33789 527.09766 C 168.7043 534.26352 193.91557 520.89905 201.10156 497.53906 C 202.14387 494.15075 202.74088 490.7231 202.95117 487.31836 L 262.58398 468.73047 L 351.14062 515.26562 L 365.94922 510.65039 L 336.48828 566.81055 L 271.07617 587.20117 L 196.43555 547.97852 L 163.20508 558.33789 C 159.23925 553.73362 154.0001 550.15299 147.82031 548.25781 C 130.29551 542.88342 111.38754 552.90579 105.99805 570.42578 C 100.60855 587.94577 110.61972 606.84046 128.14453 612.21484 C 145.66933 617.58923 164.58121 607.56491 169.9707 590.04492 C 170.81062 587.31456 171.27491 584.55125 171.39648 581.81055 L 193.99609 574.76562 L 268.63672 613.98828 L 293.40234 606.26758 L 270.5957 649.74414 L 262.33398 652.32031 C 256.79074 645.18623 247.14429 641.79967 238.07422 644.62695 C 226.41804 648.26037 219.80229 660.88191 223.42969 672.53906 C 227.05709 684.19621 239.66412 690.82483 251.32031 687.19141 C 259.98559 684.4903 265.86102 676.82037 266.81836 668.27344 L 282.07617 663.51758 L 315.76367 599.29688 L 353.71094 587.46875 L 399.49414 500.19336 L 432.63477 489.86133 C 445.43121 511.98096 459.69594 534.44769 474.91797 556.86523 L 444.02148 588.56445 L 460.36914 644.80273 C 454.30366 650.33074 451.45506 659.03262 453.80664 667.39453 C 457.11532 679.15981 469.55419 686.12871 481.31641 682.81055 C 493.07865 679.49239 500.05673 667.04653 496.74805 655.28125 C 494.06806 645.75154 485.39774 639.37074 475.94922 639.05273 L 462.62305 593.21289 L 484.49219 570.77344 C 520.47204 622.42601 560.81694 673.29938 598.80469 718.35156 L 555.53125 744.81445 L 435.9668 716.01562 L 330.62109 780.43555 L 308.57227 872.13086 L 261.97461 900.625 C 251.26148 892.06334 235.78858 890.57455 223.50195 898.08789 C 207.8635 907.6509 202.86849 928.44188 212.44336 944.07227 C 222.01822 959.70266 242.82054 964.71536 258.45898 955.15234 C 269.96979 948.11342 275.70619 934.99217 274.11914 922.32227 L 330.32227 887.95508 L 352.37109 796.25977 L 440.15234 742.58203 L 467.32031 749.125 L 435.86719 879.92773 L 306.1875 959.22656 C 299.11887 954.29217 289.45189 953.6509 281.69141 958.39648 C 271.26577 964.77182 267.93512 978.63053 274.31836 989.05078 C 280.7016 999.47106 294.57045 1002.8148 304.99609 996.43945 C 313.10315 991.48193 316.91747 981.99744 315.21289 973.125 L 450.36719 890.47656 L 483.42383 753.00391 L 559.71484 771.37891 L 615.10742 737.50781 C 634.28154 759.8296 652.49278 780.31591 668.94727 798.43945 L 647.83594 814.12891 L 606.85938 808.06836 L 582.03125 826.51953 C 572.04792 821.62719 559.8213 821.7248 549.73828 827.89062 C 534.09981 837.45366 529.10092 858.24466 538.67578 873.875 C 548.25065 889.50544 569.05684 894.52005 584.69531 884.95703 C 598.36146 876.6001 603.89761 859.66843 598.6875 845.09961 L 613.41211 834.15625 L 654.39062 840.2168 L 685.80273 816.87305 C 720.76572 854.75597 744.09375 878.08594 744.09375 878.08594 C 744.09375 878.08594 785.57181 836.56945 840.74219 774.49414 L 862.99805 789.46484 L 870.9707 830.14648 L 895.65625 846.75195 C 893.60237 855.13709 894.73077 864.30136 899.54492 872.16016 C 909.11974 887.79051 929.92404 892.80325 945.5625 883.24023 C 961.20097 873.67721 966.1979 852.88621 956.62305 837.25586 C 947.04817 821.62543 926.24394 816.61081 910.60547 826.17383 C 910.42791 826.2824 910.25879 826.40027 910.08398 826.51172 L 893.375 815.27344 L 885.4043 774.58984 L 857.32227 755.69922 C 875.03587 735.42463 893.77568 713.41606 912.77734 690.21875 L 913.00586 690.41602 L 1002.0605 767.44922 L 1122.5469 790.52148 L 1150.9082 815.05469 L 1151.5547 823.95312 L 1157.0059 899.04688 L 1219.4688 953.08008 C 1215.1677 965.64637 1218.5665 980.24036 1229.1445 989.39062 C 1243.008 1001.3829 1264.3337 999.82376 1276.3145 985.95117 C 1288.2953 972.07859 1286.7483 950.73441 1272.8848 938.74219 C 1262.3603 929.63828 1247.538 928.35089 1235.7656 934.32422 L 1181.043 886.98633 L 1177.4902 838.04883 L 1189.2148 848.19141 L 1201.7441 859.0293 L 1214.2715 869.86523 L 1302.5254 946.20703 C 1296.8056 962.95533 1301.3394 982.39639 1315.4355 994.58984 C 1333.9202 1010.5795 1362.3557 1008.5026 1378.3301 990.00586 C 1394.3045 971.50911 1392.2425 943.04827 1373.7578 927.05859 C 1359.7171 914.91303 1339.9396 913.20453 1324.2383 921.18555 L 1235.9453 844.80859 L 1223.418 833.97266 L 1210.8887 823.13477 L 1137.5039 759.6543 L 1017.0156 736.58203 L 998.80078 720.82422 L 1188.0703 757.06836 L 1190.8145 787.11133 L 1268.8418 849.36719 C 1266.4783 857.50849 1268.8318 866.7135 1275.6094 872.57227 C 1284.8517 880.56723 1299.0694 879.52772 1307.0566 870.2793 C 1315.0438 861.03088 1314.0119 846.80343 1304.7695 838.80859 C 1297.4746 832.49832 1287.0817 831.81944 1279.0977 836.35938 L 1206.668 778.56836 L 1205 760.31055 L 1219.0625 763.00391 L 1280.6758 816.30273 L 1359.9238 831.47656 L 1372.1094 842.01758 C 1367.8067 854.5841 1371.2026 869.17734 1381.7812 878.32812 C 1395.6447 890.32034 1416.9723 888.76121 1428.9531 874.88867 C 1440.9339 861.0162 1439.385 839.67393 1425.5215 827.68164 C 1414.9977 818.5783 1400.178 817.28939 1388.4062 823.26172 L 1371.1406 808.32617 L 1291.8926 793.15039 L 1230.2793 739.85352 L 971.07617 690.2168 L 961.24023 688.33398 L 934.68164 665.35938 L 933.59961 664.42383 C 942.57186 653.15072 951.52599 641.67378 960.39258 630.04688 L 1021.7852 669.31055 L 1072.9531 642.25 C 1079.6579 647.72616 1089.2986 649.07551 1097.4082 644.87695 C 1108.2615 639.25786 1112.5711 625.66877 1106.9434 614.82031 C 1101.3156 603.97186 1087.7166 599.65236 1076.8633 605.27148 C 1068.452 609.62624 1063.9749 618.76966 1065.0039 627.71289 L 1022.5762 650.15234 L 970.41211 616.79102 C 990.69804 589.70285 1010.304 561.97298 1028.2129 534.35742 L 1128.9316 563.76953 L 1194.9883 684.35547 L 1290.4824 712.24219 C 1291.0057 724.11918 1296.1631 735.77399 1305.7539 744.07031 C 1324.2386 760.05996 1352.674 757.98112 1368.6484 739.48438 C 1384.6228 720.98762 1382.5608 692.52874 1364.0762 676.53906 C 1345.6643 660.61241 1317.384 662.61542 1301.375 680.91016 L 1275.9277 673.47852 L 1346.9102 634.52734 L 1358.8809 638.35938 C 1358.8439 644.36722 1360.4069 650.44269 1363.7441 655.89062 C 1373.319 671.52107 1394.1214 676.53372 1409.7598 666.9707 C 1425.3983 657.40768 1430.3972 636.61675 1420.8223 620.98633 C 1411.2475 605.35597 1390.4412 600.34323 1374.8027 609.90625 C 1372.3198 611.42456 1370.1084 613.22732 1368.1777 615.24609 L 1344.3164 607.60938 L 1243.0742 663.16406 L 1242.2188 663.63281 L 1217.4492 656.40039 L 1151.3945 535.81445 L 1122.7051 527.4375 L 1214.2715 477.18945 L 1235.3281 483.33789 L 1252.9473 555.48828 L 1308.2305 571.10938 C 1309.249 579.74659 1315.3002 587.43895 1324.1035 590.00977 C 1335.8229 593.43209 1348.3099 586.57747 1351.7266 574.85742 C 1355.143 563.13732 1348.2974 550.63712 1336.5781 547.21484 C 1327.5475 544.57778 1318.0674 548.0476 1312.627 555.13867 L 1266.748 542.17383 L 1253.6895 488.70117 L 1352.6152 517.58984 C 1352.9605 522.79176 1354.5154 527.97467 1357.4023 532.6875 C 1366.9772 548.31794 1387.7814 553.33255 1403.4199 543.76953 C 1419.0584 534.20652 1424.0554 513.41362 1414.4805 497.7832 C 1404.9057 482.15284 1384.1013 477.14011 1368.4629 486.70312 C 1365.2379 488.67521 1362.4728 491.13076 1360.1875 493.91406 L 1211.3496 450.45117 L 1089.8965 517.09766 L 1088.9941 517.5918 L 1046.4941 505.18164 C 1072.4195 462.27888 1093.3127 420.33809 1105.1855 382.32422 L 1143.1191 374.61133 L 1212.082 420.32422 L 1312.0312 399.99805 C 1316.8574 407.55217 1326.0417 411.82153 1335.2871 409.94141 C 1347.2625 407.50608 1355.1393 395.61136 1352.7129 383.63477 C 1350.2865 371.65817 1338.4051 363.77954 1326.4297 366.21484 C 1317.4469 368.04158 1310.7714 375.19256 1309.0195 383.70703 L 1215.5098 402.72461 L 1166.0605 369.94531 L 1208.8379 361.24609 L 1264.5742 277.08008 L 1348.0918 260.09766 C 1357.596 275.71185 1376.2952 284.62408 1395.1152 280.79688 C 1419.0659 275.92624 1434.8176 252.13483 1429.9648 228.18164 C 1425.112 204.22845 1401.3492 188.47316 1377.3984 193.34375 C 1359.773 196.92805 1346.6015 210.76234 1342.8008 227.36328 L 1244.5273 247.34961 L 1188.791 331.51562 L 1113.7422 346.77734 C 1115.2179 337.57857 1116.0001 328.70896 1116 320.23047 C 1115.9998 293.7267 1112.9143 270.30789 1107.0605 249.81445 L 1143.4258 232.60742 C 1154.1512 242.39871 1170.6114 244.46756 1183.5449 236.55859 C 1199.1834 226.99558 1204.1822 206.20461 1194.6074 190.57422 C 1185.0325 174.94383 1164.2264 169.93113 1148.5879 179.49414 C 1137.7249 186.13693 1132.0045 198.19653 1132.7285 210.18164 L 1098.5879 226.33398 C 1079.3307 182.91221 1044.945 155.88473 999.72852 143.09961 L 1039.9688 100.08984 L 1108.4473 97.820312 L 1169.9766 155.4707 L 1203.6484 154.35352 C 1204.3119 155.97487 1205.1072 157.56443 1206.0488 159.10156 C 1215.6237 174.73195 1236.4279 179.74465 1252.0664 170.18164 C 1267.7048 160.61863 1272.7037 139.8257 1263.1289 124.19531 C 1253.554 108.56491 1232.7479 103.55418 1217.1094 113.11719 C 1210.6704 117.0547 1206.0412 122.89765 1203.4844 129.49805 L 1179.4492 130.29492 L 1117.918 72.644531 L 1028.8574 75.597656 L 971.30078 137.11133 C 958.21975 135.21274 944.44487 134.27538 930.04492 134.27539 C 928.99275 134.27539 927.94734 134.30793 926.90039 134.33203 L 911.82617 106.43359 L 880.43359 105.80664 C 877.57606 97.106566 869.46687 90.62568 859.85547 90.349609 C 847.63882 89.998707 837.27846 99.793218 836.9375 112.00977 C 836.59654 124.22632 846.39274 134.59832 858.60938 134.94922 C 867.58587 135.20705 875.55534 129.98462 879.28906 122.35156 L 901.84375 122.80273 L 908.92773 135.91211 C 855.97337 143.99279 811.05347 180.76506 781.53711 211.91602 L 758.00586 194.74414 C 760.61061 185.89258 757.52789 175.88726 749.6543 170.24609 C 739.71938 163.12806 725.64348 165.45202 718.51758 175.38086 C 711.39167 185.30969 713.70374 199.37611 723.63867 206.49414 C 730.88256 211.68415 740.32752 211.8498 747.67578 207.71289 L 770.33203 224.24609 C 753.57427 243.53194 744.0957 258.24414 744.0957 258.24414 C 744.0957 258.24414 664.59586 134.81803 558.82617 134.28711 L 583.73633 115.90625 L 591.49609 117.07812 C 593.28678 126.02445 600.52748 133.40313 610.00586 134.83398 C 622.07843 136.65645 633.54474 128.19386 635.37305 116.12305 C 637.20135 104.05225 628.75421 92.582242 616.68164 90.759766 C 607.79426 89.418125 599.23848 93.654226 594.61133 100.79688 L 579.42383 98.503906 L 529.09375 135.64062 C 485.72133 139.84556 449.31675 153.92716 422.52539 179.20898 L 419.42969 172.89258 L 432.86133 133.70898 L 419.82617 107.09961 C 422.38811 103.91531 424.40488 100.22367 425.66992 96.111328 C 431.05941 78.591337 421.04629 59.698609 403.52148 54.324219 C 400.23558 53.316521 396.90209 52.850154 393.61719 52.873047 z M 393.60742 77.664062 C 394.46158 77.670762 395.33831 77.802859 396.2168 78.072266 C 400.90204 79.509104 403.35563 84.138061 401.91406 88.824219 C 400.47252 93.510384 395.83758 95.968088 391.15234 94.53125 C 386.46711 93.094416 384.01353 88.463506 385.45508 83.777344 C 386.62635 79.969838 389.90608 77.6352 393.60742 77.664062 z M 859.39258 106.9082 C 862.65778 107.002 865.06198 109.54405 864.9707 112.81445 C 864.8794 116.08485 862.33747 118.48637 859.07227 118.39258 C 855.80706 118.29878 853.40482 115.75476 853.49609 112.48438 C 853.58739 109.21397 856.12737 106.81441 859.39258 106.9082 z M 613.01758 107.07227 C 613.40279 107.05587 613.7994 107.07632 614.20117 107.13672 C 617.41533 107.62193 619.48273 110.42466 618.99414 113.65039 C 618.50556 116.87612 615.70049 118.94224 612.48633 118.45703 C 609.27217 117.97183 607.20478 115.16909 607.69336 111.94336 C 608.12088 109.12085 610.32106 107.18691 613.01758 107.07227 z M 1234.9961 132.98047 C 1237.7355 133.0837 1240.3279 134.54326 1241.9297 137.1582 C 1244.4927 141.34211 1243.2656 146.43746 1239.0879 148.99219 C 1234.9101 151.54691 1229.8091 150.32258 1227.2461 146.13867 C 1224.6832 141.95477 1225.9101 136.85745 1230.0879 134.30273 C 1231.6546 133.34471 1233.3525 132.91853 1234.9961 132.98047 z M 128.23438 133.41016 C 129.37335 133.41916 130.54158 133.59587 131.71289 133.95508 C 137.95988 135.87087 141.23262 142.0428 139.31055 148.29102 C 137.38848 154.53923 131.20988 157.81618 124.96289 155.90039 C 118.71591 153.98461 115.44121 147.81071 117.36328 141.5625 C 118.92496 136.48583 123.29883 133.37138 128.23438 133.41016 z M 520.8457 166.87891 A 4.4291339 4.4291339 0 0 1 525.27344 171.30664 A 4.4291339 4.4291339 0 0 1 520.8457 175.73633 A 4.4291339 4.4291339 0 0 1 516.41602 171.30664 A 4.4291339 4.4291339 0 0 1 520.8457 166.87891 z M 576.6582 166.87891 A 4.4291339 4.4291339 0 0 1 581.08594 171.30664 A 4.4291339 4.4291339 0 0 1 576.6582 175.73633 A 4.4291339 4.4291339 0 0 1 572.22852 171.30664 A 4.4291339 4.4291339 0 0 1 576.6582 166.87891 z M 632.4707 166.87891 A 4.4291339 4.4291339 0 0 1 636.89844 171.30664 A 4.4291339 4.4291339 0 0 1 632.4707 175.73633 A 4.4291339 4.4291339 0 0 1 628.04102 171.30664 A 4.4291339 4.4291339 0 0 1 632.4707 166.87891 z M 855.71875 166.87891 A 4.4291339 4.4291339 0 0 1 860.14844 171.30664 A 4.4291339 4.4291339 0 0 1 855.71875 175.73633 A 4.4291339 4.4291339 0 0 1 851.28906 171.30664 A 4.4291339 4.4291339 0 0 1 855.71875 166.87891 z M 911.53125 166.87891 A 4.4291339 4.4291339 0 0 1 915.96094 171.30664 A 4.4291339 4.4291339 0 0 1 911.53125 175.73633 A 4.4291339 4.4291339 0 0 1 907.10156 171.30664 A 4.4291339 4.4291339 0 0 1 911.53125 166.87891 z M 967.34375 166.87891 A 4.4291339 4.4291339 0 0 1 971.77344 171.30664 A 4.4291339 4.4291339 0 0 1 967.34375 175.73633 A 4.4291339 4.4291339 0 0 1 962.91406 171.30664 A 4.4291339 4.4291339 0 0 1 967.34375 166.87891 z M 736.79688 182.58594 C 737.89304 182.62444 739.00033 182.98971 739.99609 183.70312 C 742.65146 185.6056 743.22013 189.05491 741.3125 191.71289 C 739.40487 194.37087 735.9542 194.93764 733.29883 193.03516 C 730.64346 191.13267 730.0748 187.68727 731.98242 185.0293 C 733.17469 183.36806 734.96992 182.52181 736.79688 182.58594 z M 1166.4746 199.35938 C 1169.214 199.4626 1171.8063 200.92217 1173.4082 203.53711 C 1175.9711 207.72101 1174.7442 212.81637 1170.5664 215.37109 C 1166.3886 217.92581 1161.2875 216.70149 1158.7246 212.51758 C 1156.1616 208.33368 1157.3907 203.23636 1161.5684 200.68164 C 1163.135 199.72362 1164.831 199.29744 1166.4746 199.35938 z M 465.0332 222.68945 A 4.4291339 4.4291339 0 0 1 469.46289 227.11914 A 4.4291339 4.4291339 0 0 1 465.0332 231.54883 A 4.4291339 4.4291339 0 0 1 460.60352 227.11914 A 4.4291339 4.4291339 0 0 1 465.0332 222.68945 z M 520.8457 222.68945 A 4.4291339 4.4291339 0 0 1 525.27344 227.11914 A 4.4291339 4.4291339 0 0 1 520.8457 231.54883 A 4.4291339 4.4291339 0 0 1 516.41602 227.11914 A 4.4291339 4.4291339 0 0 1 520.8457 222.68945 z M 576.6582 222.68945 A 4.4291339 4.4291339 0 0 1 581.08594 227.11914 A 4.4291339 4.4291339 0 0 1 576.6582 231.54883 A 4.4291339 4.4291339 0 0 1 572.22852 227.11914 A 4.4291339 4.4291339 0 0 1 576.6582 222.68945 z M 632.4707 222.68945 A 4.4291339 4.4291339 0 0 1 636.89844 227.11914 A 4.4291339 4.4291339 0 0 1 632.4707 231.54883 A 4.4291339 4.4291339 0 0 1 628.04102 227.11914 A 4.4291339 4.4291339 0 0 1 632.4707 222.68945 z M 688.28125 222.68945 A 4.4291339 4.4291339 0 0 1 692.71094 227.11914 A 4.4291339 4.4291339 0 0 1 688.28125 231.54883 A 4.4291339 4.4291339 0 0 1 683.85352 227.11914 A 4.4291339 4.4291339 0 0 1 688.28125 222.68945 z M 799.90625 222.68945 A 4.4291339 4.4291339 0 0 1 804.33594 227.11914 A 4.4291339 4.4291339 0 0 1 799.90625 231.54883 A 4.4291339 4.4291339 0 0 1 795.47852 227.11914 A 4.4291339 4.4291339 0 0 1 799.90625 222.68945 z M 855.71875 222.68945 A 4.4291339 4.4291339 0 0 1 860.14844 227.11914 A 4.4291339 4.4291339 0 0 1 855.71875 231.54883 A 4.4291339 4.4291339 0 0 1 851.28906 227.11914 A 4.4291339 4.4291339 0 0 1 855.71875 222.68945 z M 911.53125 222.68945 A 4.4291339 4.4291339 0 0 1 915.96094 227.11914 A 4.4291339 4.4291339 0 0 1 911.53125 231.54883 A 4.4291339 4.4291339 0 0 1 907.10156 227.11914 A 4.4291339 4.4291339 0 0 1 911.53125 222.68945 z M 967.34375 222.68945 A 4.4291339 4.4291339 0 0 1 971.77344 227.11914 A 4.4291339 4.4291339 0 0 1 967.34375 231.54883 A 4.4291339 4.4291339 0 0 1 962.91406 227.11914 A 4.4291339 4.4291339 0 0 1 967.34375 222.68945 z M 1023.1562 222.68945 A 4.4291339 4.4291339 0 0 1 1027.5859 227.11914 A 4.4291339 4.4291339 0 0 1 1023.1562 231.54883 A 4.4291339 4.4291339 0 0 1 1018.7266 227.11914 A 4.4291339 4.4291339 0 0 1 1023.1562 222.68945 z M 1386.3398 225.5625 C 1391.7584 225.517 1396.3632 229.17171 1397.5 234.7832 C 1398.7993 241.19633 1394.934 247.02724 1388.5371 248.32812 C 1382.1402 249.629 1376.3149 245.7686 1375.0156 239.35547 C 1373.7163 232.94234 1377.5797 227.11532 1383.9766 225.81445 C 1384.7762 225.65184 1385.5658 225.569 1386.3398 225.5625 z M 131.23633 273.69141 C 132.09052 273.69841 132.96722 273.8302 133.8457 274.09961 C 138.53094 275.53645 140.98453 280.16735 139.54297 284.85352 C 138.10142 289.53967 133.46844 291.99542 128.7832 290.55859 C 124.09797 289.12175 121.64439 284.49279 123.08594 279.80664 C 124.2572 275.99913 127.53485 273.663 131.23633 273.69141 z M 409.2207 278.50195 A 4.4291339 4.4291339 0 0 1 413.65039 282.93164 A 4.4291339 4.4291339 0 0 1 409.2207 287.36133 A 4.4291339 4.4291339 0 0 1 404.79102 282.93164 A 4.4291339 4.4291339 0 0 1 409.2207 278.50195 z M 465.0332 278.50195 A 4.4291339 4.4291339 0 0 1 469.46289 282.93164 A 4.4291339 4.4291339 0 0 1 465.0332 287.36133 A 4.4291339 4.4291339 0 0 1 460.60352 282.93164 A 4.4291339 4.4291339 0 0 1 465.0332 278.50195 z M 520.8457 278.50195 A 4.4291339 4.4291339 0 0 1 525.27344 282.93164 A 4.4291339 4.4291339 0 0 1 520.8457 287.36133 A 4.4291339 4.4291339 0 0 1 516.41602 282.93164 A 4.4291339 4.4291339 0 0 1 520.8457 278.50195 z M 576.6582 278.50195 A 4.4291339 4.4291339 0 0 1 581.08594 282.93164 A 4.4291339 4.4291339 0 0 1 576.6582 287.36133 A 4.4291339 4.4291339 0 0 1 572.22852 282.93164 A 4.4291339 4.4291339 0 0 1 576.6582 278.50195 z M 632.4707 278.50195 A 4.4291339 4.4291339 0 0 1 636.89844 282.93164 A 4.4291339 4.4291339 0 0 1 632.4707 287.36133 A 4.4291339 4.4291339 0 0 1 628.04102 282.93164 A 4.4291339 4.4291339 0 0 1 632.4707 278.50195 z M 688.28125 278.50195 A 4.4291339 4.4291339 0 0 1 692.71094 282.93164 A 4.4291339 4.4291339 0 0 1 688.28125 287.36133 A 4.4291339 4.4291339 0 0 1 683.85352 282.93164 A 4.4291339 4.4291339 0 0 1 688.28125 278.50195 z M 744.09375 278.50195 A 4.4291339 4.4291339 0 0 1 748.52344 282.93164 A 4.4291339 4.4291339 0 0 1 744.09375 287.36133 A 4.4291339 4.4291339 0 0 1 739.66602 282.93164 A 4.4291339 4.4291339 0 0 1 744.09375 278.50195 z M 799.90625 278.50195 A 4.4291339 4.4291339 0 0 1 804.33594 282.93164 A 4.4291339 4.4291339 0 0 1 799.90625 287.36133 A 4.4291339 4.4291339 0 0 1 795.47852 282.93164 A 4.4291339 4.4291339 0 0 1 799.90625 278.50195 z M 855.71875 278.50195 A 4.4291339 4.4291339 0 0 1 860.14844 282.93164 A 4.4291339 4.4291339 0 0 1 855.71875 287.36133 A 4.4291339 4.4291339 0 0 1 851.28906 282.93164 A 4.4291339 4.4291339 0 0 1 855.71875 278.50195 z M 911.53125 278.50195 A 4.4291339 4.4291339 0 0 1 915.96094 282.93164 A 4.4291339 4.4291339 0 0 1 911.53125 287.36133 A 4.4291339 4.4291339 0 0 1 907.10156 282.93164 A 4.4291339 4.4291339 0 0 1 911.53125 278.50195 z M 967.34375 278.50195 A 4.4291339 4.4291339 0 0 1 971.77344 282.93164 A 4.4291339 4.4291339 0 0 1 967.34375 287.36133 A 4.4291339 4.4291339 0 0 1 962.91406 282.93164 A 4.4291339 4.4291339 0 0 1 967.34375 278.50195 z M 1023.1562 278.50195 A 4.4291339 4.4291339 0 0 1 1027.5859 282.93164 A 4.4291339 4.4291339 0 0 1 1023.1562 287.36133 A 4.4291339 4.4291339 0 0 1 1018.7266 282.93164 A 4.4291339 4.4291339 0 0 1 1023.1562 278.50195 z M 1078.9688 278.50195 A 4.4291339 4.4291339 0 0 1 1083.3984 282.93164 A 4.4291339 4.4291339 0 0 1 1078.9688 287.36133 A 4.4291339 4.4291339 0 0 1 1074.5391 282.93164 A 4.4291339 4.4291339 0 0 1 1078.9688 278.50195 z M 409.2207 334.31445 A 4.4291339 4.4291339 0 0 1 413.65039 338.74414 A 4.4291339 4.4291339 0 0 1 409.2207 343.17383 A 4.4291339 4.4291339 0 0 1 404.79102 338.74414 A 4.4291339 4.4291339 0 0 1 409.2207 334.31445 z M 465.0332 334.31445 A 4.4291339 4.4291339 0 0 1 469.46289 338.74414 A 4.4291339 4.4291339 0 0 1 465.0332 343.17383 A 4.4291339 4.4291339 0 0 1 460.60352 338.74414 A 4.4291339 4.4291339 0 0 1 465.0332 334.31445 z M 520.8457 334.31445 A 4.4291339 4.4291339 0 0 1 525.27344 338.74414 A 4.4291339 4.4291339 0 0 1 520.8457 343.17383 A 4.4291339 4.4291339 0 0 1 516.41602 338.74414 A 4.4291339 4.4291339 0 0 1 520.8457 334.31445 z M 576.6582 334.31445 A 4.4291339 4.4291339 0 0 1 581.08594 338.74414 A 4.4291339 4.4291339 0 0 1 576.6582 343.17383 A 4.4291339 4.4291339 0 0 1 572.22852 338.74414 A 4.4291339 4.4291339 0 0 1 576.6582 334.31445 z M 632.4707 334.31445 A 4.4291339 4.4291339 0 0 1 636.89844 338.74414 A 4.4291339 4.4291339 0 0 1 632.4707 343.17383 A 4.4291339 4.4291339 0 0 1 628.04102 338.74414 A 4.4291339 4.4291339 0 0 1 632.4707 334.31445 z M 688.28125 334.31445 A 4.4291339 4.4291339 0 0 1 692.71094 338.74414 A 4.4291339 4.4291339 0 0 1 688.28125 343.17383 A 4.4291339 4.4291339 0 0 1 683.85352 338.74414 A 4.4291339 4.4291339 0 0 1 688.28125 334.31445 z M 744.09375 334.31445 A 4.4291339 4.4291339 0 0 1 748.52344 338.74414 A 4.4291339 4.4291339 0 0 1 744.09375 343.17383 A 4.4291339 4.4291339 0 0 1 739.66602 338.74414 A 4.4291339 4.4291339 0 0 1 744.09375 334.31445 z M 799.90625 334.31445 A 4.4291339 4.4291339 0 0 1 804.33594 338.74414 A 4.4291339 4.4291339 0 0 1 799.90625 343.17383 A 4.4291339 4.4291339 0 0 1 795.47852 338.74414 A 4.4291339 4.4291339 0 0 1 799.90625 334.31445 z M 855.71875 334.31445 A 4.4291339 4.4291339 0 0 1 860.14844 338.74414 A 4.4291339 4.4291339 0 0 1 855.71875 343.17383 A 4.4291339 4.4291339 0 0 1 851.28906 338.74414 A 4.4291339 4.4291339 0 0 1 855.71875 334.31445 z M 911.53125 334.31445 A 4.4291339 4.4291339 0 0 1 915.96094 338.74414 A 4.4291339 4.4291339 0 0 1 911.53125 343.17383 A 4.4291339 4.4291339 0 0 1 907.10156 338.74414 A 4.4291339 4.4291339 0 0 1 911.53125 334.31445 z M 967.34375 334.31445 A 4.4291339 4.4291339 0 0 1 971.77344 338.74414 A 4.4291339 4.4291339 0 0 1 967.34375 343.17383 A 4.4291339 4.4291339 0 0 1 962.91406 338.74414 A 4.4291339 4.4291339 0 0 1 967.34375 334.31445 z M 1023.1562 334.31445 A 4.4291339 4.4291339 0 0 1 1027.5859 338.74414 A 4.4291339 4.4291339 0 0 1 1023.1562 343.17383 A 4.4291339 4.4291339 0 0 1 1018.7266 338.74414 A 4.4291339 4.4291339 0 0 1 1023.1562 334.31445 z M 1078.9688 334.31445 A 4.4291339 4.4291339 0 0 1 1083.3984 338.74414 A 4.4291339 4.4291339 0 0 1 1078.9688 343.17383 A 4.4291339 4.4291339 0 0 1 1074.5391 338.74414 A 4.4291339 4.4291339 0 0 1 1078.9688 334.31445 z M 1330.9004 382.32422 C 1333.6094 382.30192 1335.9101 384.13175 1336.4785 386.9375 C 1337.1281 390.14406 1335.1965 393.05658 1331.998 393.70703 C 1328.7996 394.35746 1325.8879 392.42923 1325.2383 389.22266 C 1324.5886 386.0161 1326.5202 383.09967 1329.7188 382.44922 C 1330.1185 382.36792 1330.5134 382.32741 1330.9004 382.32422 z M 409.2207 390.12695 A 4.4291339 4.4291339 0 0 1 413.65039 394.55664 A 4.4291339 4.4291339 0 0 1 409.2207 398.98633 A 4.4291339 4.4291339 0 0 1 404.79102 394.55664 A 4.4291339 4.4291339 0 0 1 409.2207 390.12695 z M 465.0332 390.12695 A 4.4291339 4.4291339 0 0 1 469.46289 394.55664 A 4.4291339 4.4291339 0 0 1 465.0332 398.98633 A 4.4291339 4.4291339 0 0 1 460.60352 394.55664 A 4.4291339 4.4291339 0 0 1 465.0332 390.12695 z M 520.8457 390.12695 A 4.4291339 4.4291339 0 0 1 525.27344 394.55664 A 4.4291339 4.4291339 0 0 1 520.8457 398.98633 A 4.4291339 4.4291339 0 0 1 516.41602 394.55664 A 4.4291339 4.4291339 0 0 1 520.8457 390.12695 z M 576.6582 390.12695 A 4.4291339 4.4291339 0 0 1 581.08594 394.55664 A 4.4291339 4.4291339 0 0 1 576.6582 398.98633 A 4.4291339 4.4291339 0 0 1 572.22852 394.55664 A 4.4291339 4.4291339 0 0 1 576.6582 390.12695 z M 632.4707 390.12695 A 4.4291339 4.4291339 0 0 1 636.89844 394.55664 A 4.4291339 4.4291339 0 0 1 632.4707 398.98633 A 4.4291339 4.4291339 0 0 1 628.04102 394.55664 A 4.4291339 4.4291339 0 0 1 632.4707 390.12695 z M 688.28125 390.12695 A 4.4291339 4.4291339 0 0 1 692.71094 394.55664 A 4.4291339 4.4291339 0 0 1 688.28125 398.98633 A 4.4291339 4.4291339 0 0 1 683.85352 394.55664 A 4.4291339 4.4291339 0 0 1 688.28125 390.12695 z M 744.09375 390.12695 A 4.4291339 4.4291339 0 0 1 748.52344 394.55664 A 4.4291339 4.4291339 0 0 1 744.09375 398.98633 A 4.4291339 4.4291339 0 0 1 739.66602 394.55664 A 4.4291339 4.4291339 0 0 1 744.09375 390.12695 z M 799.90625 390.12695 A 4.4291339 4.4291339 0 0 1 804.33594 394.55664 A 4.4291339 4.4291339 0 0 1 799.90625 398.98633 A 4.4291339 4.4291339 0 0 1 795.47852 394.55664 A 4.4291339 4.4291339 0 0 1 799.90625 390.12695 z M 855.71875 390.12695 A 4.4291339 4.4291339 0 0 1 860.14844 394.55664 A 4.4291339 4.4291339 0 0 1 855.71875 398.98633 A 4.4291339 4.4291339 0 0 1 851.28906 394.55664 A 4.4291339 4.4291339 0 0 1 855.71875 390.12695 z M 911.53125 390.12695 A 4.4291339 4.4291339 0 0 1 915.96094 394.55664 A 4.4291339 4.4291339 0 0 1 911.53125 398.98633 A 4.4291339 4.4291339 0 0 1 907.10156 394.55664 A 4.4291339 4.4291339 0 0 1 911.53125 390.12695 z M 967.34375 390.12695 A 4.4291339 4.4291339 0 0 1 971.77344 394.55664 A 4.4291339 4.4291339 0 0 1 967.34375 398.98633 A 4.4291339 4.4291339 0 0 1 962.91406 394.55664 A 4.4291339 4.4291339 0 0 1 967.34375 390.12695 z M 1023.1562 390.12695 A 4.4291339 4.4291339 0 0 1 1027.5859 394.55664 A 4.4291339 4.4291339 0 0 1 1023.1562 398.98633 A 4.4291339 4.4291339 0 0 1 1018.7266 394.55664 A 4.4291339 4.4291339 0 0 1 1023.1562 390.12695 z M 1078.9688 390.12695 A 4.4291339 4.4291339 0 0 1 1083.3984 394.55664 A 4.4291339 4.4291339 0 0 1 1078.9688 398.98633 A 4.4291339 4.4291339 0 0 1 1074.5391 394.55664 A 4.4291339 4.4291339 0 0 1 1078.9688 390.12695 z M 465.0332 445.93945 A 4.4291339 4.4291339 0 0 1 469.46289 450.36914 A 4.4291339 4.4291339 0 0 1 465.0332 454.79883 A 4.4291339 4.4291339 0 0 1 460.60352 450.36914 A 4.4291339 4.4291339 0 0 1 465.0332 445.93945 z M 520.8457 445.93945 A 4.4291339 4.4291339 0 0 1 525.27344 450.36914 A 4.4291339 4.4291339 0 0 1 520.8457 454.79883 A 4.4291339 4.4291339 0 0 1 516.41602 450.36914 A 4.4291339 4.4291339 0 0 1 520.8457 445.93945 z M 576.6582 445.93945 A 4.4291339 4.4291339 0 0 1 581.08594 450.36914 A 4.4291339 4.4291339 0 0 1 576.6582 454.79883 A 4.4291339 4.4291339 0 0 1 572.22852 450.36914 A 4.4291339 4.4291339 0 0 1 576.6582 445.93945 z M 632.4707 445.93945 A 4.4291339 4.4291339 0 0 1 636.89844 450.36914 A 4.4291339 4.4291339 0 0 1 632.4707 454.79883 A 4.4291339 4.4291339 0 0 1 628.04102 450.36914 A 4.4291339 4.4291339 0 0 1 632.4707 445.93945 z M 688.28125 445.93945 A 4.4291339 4.4291339 0 0 1 692.71094 450.36914 A 4.4291339 4.4291339 0 0 1 688.28125 454.79883 A 4.4291339 4.4291339 0 0 1 683.85352 450.36914 A 4.4291339 4.4291339 0 0 1 688.28125 445.93945 z M 744.09375 445.93945 A 4.4291339 4.4291339 0 0 1 748.52344 450.36914 A 4.4291339 4.4291339 0 0 1 744.09375 454.79883 A 4.4291339 4.4291339 0 0 1 739.66602 450.36914 A 4.4291339 4.4291339 0 0 1 744.09375 445.93945 z M 799.90625 445.93945 A 4.4291339 4.4291339 0 0 1 804.33594 450.36914 A 4.4291339 4.4291339 0 0 1 799.90625 454.79883 A 4.4291339 4.4291339 0 0 1 795.47852 450.36914 A 4.4291339 4.4291339 0 0 1 799.90625 445.93945 z M 855.71875 445.93945 A 4.4291339 4.4291339 0 0 1 860.14844 450.36914 A 4.4291339 4.4291339 0 0 1 855.71875 454.79883 A 4.4291339 4.4291339 0 0 1 851.28906 450.36914 A 4.4291339 4.4291339 0 0 1 855.71875 445.93945 z M 911.53125 445.93945 A 4.4291339 4.4291339 0 0 1 915.96094 450.36914 A 4.4291339 4.4291339 0 0 1 911.53125 454.79883 A 4.4291339 4.4291339 0 0 1 907.10156 450.36914 A 4.4291339 4.4291339 0 0 1 911.53125 445.93945 z M 967.34375 445.93945 A 4.4291339 4.4291339 0 0 1 971.77344 450.36914 A 4.4291339 4.4291339 0 0 1 967.34375 454.79883 A 4.4291339 4.4291339 0 0 1 962.91406 450.36914 A 4.4291339 4.4291339 0 0 1 967.34375 445.93945 z M 1023.1562 445.93945 A 4.4291339 4.4291339 0 0 1 1027.5859 450.36914 A 4.4291339 4.4291339 0 0 1 1023.1562 454.79883 A 4.4291339 4.4291339 0 0 1 1018.7266 450.36914 A 4.4291339 4.4291339 0 0 1 1023.1562 445.93945 z M 158.35156 472.94141 C 159.49046 472.95041 160.65877 473.12712 161.83008 473.48633 C 168.07706 475.40211 171.34785 481.57601 169.42578 487.82422 C 167.5037 494.07244 161.32511 497.34937 155.07812 495.43359 C 148.83113 493.51781 145.56034 487.34391 147.48242 481.0957 C 149.04411 476.01902 153.41635 472.90323 158.35156 472.94141 z M 465.0332 501.75195 A 4.4291339 4.4291339 0 0 1 469.46289 506.18164 A 4.4291339 4.4291339 0 0 1 465.0332 510.60938 A 4.4291339 4.4291339 0 0 1 460.60352 506.18164 A 4.4291339 4.4291339 0 0 1 465.0332 501.75195 z M 520.8457 501.75195 A 4.4291339 4.4291339 0 0 1 525.27344 506.18164 A 4.4291339 4.4291339 0 0 1 520.8457 510.60938 A 4.4291339 4.4291339 0 0 1 516.41602 506.18164 A 4.4291339 4.4291339 0 0 1 520.8457 501.75195 z M 576.6582 501.75195 A 4.4291339 4.4291339 0 0 1 581.08594 506.18164 A 4.4291339 4.4291339 0 0 1 576.6582 510.60938 A 4.4291339 4.4291339 0 0 1 572.22852 506.18164 A 4.4291339 4.4291339 0 0 1 576.6582 501.75195 z M 632.4707 501.75195 A 4.4291339 4.4291339 0 0 1 636.89844 506.18164 A 4.4291339 4.4291339 0 0 1 632.4707 510.60938 A 4.4291339 4.4291339 0 0 1 628.04102 506.18164 A 4.4291339 4.4291339 0 0 1 632.4707 501.75195 z M 688.28125 501.75195 A 4.4291339 4.4291339 0 0 1 692.71094 506.18164 A 4.4291339 4.4291339 0 0 1 688.28125 510.60938 A 4.4291339 4.4291339 0 0 1 683.85352 506.18164 A 4.4291339 4.4291339 0 0 1 688.28125 501.75195 z M 744.09375 501.75195 A 4.4291339 4.4291339 0 0 1 748.52344 506.18164 A 4.4291339 4.4291339 0 0 1 744.09375 510.60938 A 4.4291339 4.4291339 0 0 1 739.66602 506.18164 A 4.4291339 4.4291339 0 0 1 744.09375 501.75195 z M 799.90625 501.75195 A 4.4291339 4.4291339 0 0 1 804.33594 506.18164 A 4.4291339 4.4291339 0 0 1 799.90625 510.60938 A 4.4291339 4.4291339 0 0 1 795.47852 506.18164 A 4.4291339 4.4291339 0 0 1 799.90625 501.75195 z M 855.71875 501.75195 A 4.4291339 4.4291339 0 0 1 860.14844 506.18164 A 4.4291339 4.4291339 0 0 1 855.71875 510.60938 A 4.4291339 4.4291339 0 0 1 851.28906 506.18164 A 4.4291339 4.4291339 0 0 1 855.71875 501.75195 z M 911.53125 501.75195 A 4.4291339 4.4291339 0 0 1 915.96094 506.18164 A 4.4291339 4.4291339 0 0 1 911.53125 510.60938 A 4.4291339 4.4291339 0 0 1 907.10156 506.18164 A 4.4291339 4.4291339 0 0 1 911.53125 501.75195 z M 967.34375 501.75195 A 4.4291339 4.4291339 0 0 1 971.77344 506.18164 A 4.4291339 4.4291339 0 0 1 967.34375 510.60938 A 4.4291339 4.4291339 0 0 1 962.91406 506.18164 A 4.4291339 4.4291339 0 0 1 967.34375 501.75195 z M 1023.1562 501.75195 A 4.4291339 4.4291339 0 0 1 1027.5859 506.18164 A 4.4291339 4.4291339 0 0 1 1023.1562 510.60938 A 4.4291339 4.4291339 0 0 1 1018.7266 506.18164 A 4.4291339 4.4291339 0 0 1 1023.1562 501.75195 z M 1386.3477 506.56836 C 1389.0871 506.6716 1391.6813 508.13116 1393.2832 510.74609 C 1395.8461 514.92998 1394.6173 520.02536 1390.4395 522.58008 C 1386.2618 525.13481 1381.1625 523.9085 1378.5996 519.72461 C 1376.0366 515.54072 1377.2636 510.44534 1381.4414 507.89062 C 1383.0081 506.93261 1384.704 506.50641 1386.3477 506.56836 z M 520.8457 557.56445 A 4.4291339 4.4291339 0 0 1 525.27344 561.99414 A 4.4291339 4.4291339 0 0 1 520.8457 566.42188 A 4.4291339 4.4291339 0 0 1 516.41602 561.99414 A 4.4291339 4.4291339 0 0 1 520.8457 557.56445 z M 576.6582 557.56445 A 4.4291339 4.4291339 0 0 1 581.08594 561.99414 A 4.4291339 4.4291339 0 0 1 576.6582 566.42188 A 4.4291339 4.4291339 0 0 1 572.22852 561.99414 A 4.4291339 4.4291339 0 0 1 576.6582 557.56445 z M 632.4707 557.56445 A 4.4291339 4.4291339 0 0 1 636.89844 561.99414 A 4.4291339 4.4291339 0 0 1 632.4707 566.42188 A 4.4291339 4.4291339 0 0 1 628.04102 561.99414 A 4.4291339 4.4291339 0 0 1 632.4707 557.56445 z M 688.28125 557.56445 A 4.4291339 4.4291339 0 0 1 692.71094 561.99414 A 4.4291339 4.4291339 0 0 1 688.28125 566.42188 A 4.4291339 4.4291339 0 0 1 683.85352 561.99414 A 4.4291339 4.4291339 0 0 1 688.28125 557.56445 z M 744.09375 557.56445 A 4.4291339 4.4291339 0 0 1 748.52344 561.99414 A 4.4291339 4.4291339 0 0 1 744.09375 566.42188 A 4.4291339 4.4291339 0 0 1 739.66602 561.99414 A 4.4291339 4.4291339 0 0 1 744.09375 557.56445 z M 799.90625 557.56445 A 4.4291339 4.4291339 0 0 1 804.33594 561.99414 A 4.4291339 4.4291339 0 0 1 799.90625 566.42188 A 4.4291339 4.4291339 0 0 1 795.47852 561.99414 A 4.4291339 4.4291339 0 0 1 799.90625 557.56445 z M 855.71875 557.56445 A 4.4291339 4.4291339 0 0 1 860.14844 561.99414 A 4.4291339 4.4291339 0 0 1 855.71875 566.42188 A 4.4291339 4.4291339 0 0 1 851.28906 561.99414 A 4.4291339 4.4291339 0 0 1 855.71875 557.56445 z M 911.53125 557.56445 A 4.4291339 4.4291339 0 0 1 915.96094 561.99414 A 4.4291339 4.4291339 0 0 1 911.53125 566.42188 A 4.4291339 4.4291339 0 0 1 907.10156 561.99414 A 4.4291339 4.4291339 0 0 1 911.53125 557.56445 z M 967.34375 557.56445 A 4.4291339 4.4291339 0 0 1 971.77344 561.99414 A 4.4291339 4.4291339 0 0 1 967.34375 566.42188 A 4.4291339 4.4291339 0 0 1 962.91406 561.99414 A 4.4291339 4.4291339 0 0 1 967.34375 557.56445 z M 1330.209 562.87109 C 1330.7754 562.86709 1331.3586 562.94659 1331.9434 563.11719 C 1335.063 564.02815 1336.7372 567.08116 1335.8242 570.21289 C 1334.9115 573.34397 1331.8592 575.01715 1328.7402 574.10742 C 1325.6207 573.19644 1323.9465 570.14343 1324.8594 567.01172 C 1325.601 564.46772 1327.7545 562.88644 1330.209 562.87109 z M 137.9043 571.59766 C 138.75845 571.60466 139.63519 571.73645 140.51367 572.00586 C 145.19891 573.4427 147.65639 578.0736 146.21484 582.75977 C 144.77328 587.44593 140.13641 589.90167 135.45117 588.46484 C 130.76593 587.028 128.31236 582.3971 129.75391 577.71094 C 130.92517 573.90343 134.20295 571.56879 137.9043 571.59766 z M 576.6582 613.37695 A 4.4291339 4.4291339 0 0 1 581.08594 617.80664 A 4.4291339 4.4291339 0 0 1 576.6582 622.23438 A 4.4291339 4.4291339 0 0 1 572.22852 617.80664 A 4.4291339 4.4291339 0 0 1 576.6582 613.37695 z M 632.4707 613.37695 A 4.4291339 4.4291339 0 0 1 636.89844 617.80664 A 4.4291339 4.4291339 0 0 1 632.4707 622.23438 A 4.4291339 4.4291339 0 0 1 628.04102 617.80664 A 4.4291339 4.4291339 0 0 1 632.4707 613.37695 z M 688.28125 613.37695 A 4.4291339 4.4291339 0 0 1 692.71094 617.80664 A 4.4291339 4.4291339 0 0 1 688.28125 622.23438 A 4.4291339 4.4291339 0 0 1 683.85352 617.80664 A 4.4291339 4.4291339 0 0 1 688.28125 613.37695 z M 744.09375 613.37695 A 4.4291339 4.4291339 0 0 1 748.52344 617.80664 A 4.4291339 4.4291339 0 0 1 744.09375 622.23438 A 4.4291339 4.4291339 0 0 1 739.66602 617.80664 A 4.4291339 4.4291339 0 0 1 744.09375 613.37695 z M 799.90625 613.37695 A 4.4291339 4.4291339 0 0 1 804.33594 617.80664 A 4.4291339 4.4291339 0 0 1 799.90625 622.23438 A 4.4291339 4.4291339 0 0 1 795.47852 617.80664 A 4.4291339 4.4291339 0 0 1 799.90625 613.37695 z M 855.71875 613.37695 A 4.4291339 4.4291339 0 0 1 860.14844 617.80664 A 4.4291339 4.4291339 0 0 1 855.71875 622.23438 A 4.4291339 4.4291339 0 0 1 851.28906 617.80664 A 4.4291339 4.4291339 0 0 1 855.71875 613.37695 z M 911.53125 613.37695 A 4.4291339 4.4291339 0 0 1 915.96094 617.80664 A 4.4291339 4.4291339 0 0 1 911.53125 622.23438 A 4.4291339 4.4291339 0 0 1 907.10156 617.80664 A 4.4291339 4.4291339 0 0 1 911.53125 613.37695 z M 1087.2676 619.29688 C 1089.2961 619.31647 1091.1967 620.44088 1092.2324 622.4375 C 1093.739 625.34168 1092.6821 628.67199 1089.7812 630.17383 C 1086.8806 631.67568 1083.5457 630.61901 1082.0391 627.71484 C 1080.5325 624.81067 1081.5894 621.47842 1084.4902 619.97656 C 1085.3967 619.50723 1086.3455 619.28797 1087.2676 619.29688 z M 1392.6895 629.77148 C 1395.4289 629.87472 1398.0212 631.33429 1399.623 633.94922 C 1402.186 638.1332 1400.9591 643.22848 1396.7812 645.7832 C 1392.6037 648.33793 1387.5045 647.11171 1384.9414 642.92773 C 1382.3785 638.74384 1383.6055 633.64847 1387.7832 631.09375 C 1389.3499 630.13573 1391.0458 629.70954 1392.6895 629.77148 z M 475.4707 655.58008 C 477.93964 655.61628 480.08812 657.22433 480.80664 659.7793 C 481.69097 662.92387 479.98082 665.975 476.83203 666.86328 C 473.68326 667.75156 470.63433 666.04302 469.75 662.89844 C 468.86567 659.75386 470.57583 656.70273 473.72461 655.81445 C 474.31501 655.6479 474.90095 655.57172 475.4707 655.58008 z M 244.72656 660.16406 C 247.1823 660.13466 249.36668 661.67595 250.1543 664.20703 C 251.12366 667.32221 249.50175 670.4057 246.39844 671.37305 C 243.29514 672.3404 240.21351 670.72454 239.24414 667.60938 C 238.27478 664.49419 239.89279 661.41071 242.99609 660.44336 C 243.57796 660.26198 244.15985 660.17086 244.72656 660.16406 z M 576.6582 669.18945 A 4.4291339 4.4291339 0 0 1 581.08594 673.61719 A 4.4291339 4.4291339 0 0 1 576.6582 678.04688 A 4.4291339 4.4291339 0 0 1 572.22852 673.61719 A 4.4291339 4.4291339 0 0 1 576.6582 669.18945 z M 632.4707 669.18945 A 4.4291339 4.4291339 0 0 1 636.89844 673.61719 A 4.4291339 4.4291339 0 0 1 632.4707 678.04688 A 4.4291339 4.4291339 0 0 1 628.04102 673.61719 A 4.4291339 4.4291339 0 0 1 632.4707 669.18945 z M 688.28125 669.18945 A 4.4291339 4.4291339 0 0 1 692.71094 673.61719 A 4.4291339 4.4291339 0 0 1 688.28125 678.04688 A 4.4291339 4.4291339 0 0 1 683.85352 673.61719 A 4.4291339 4.4291339 0 0 1 688.28125 669.18945 z M 744.09375 669.18945 A 4.4291339 4.4291339 0 0 1 748.52344 673.61719 A 4.4291339 4.4291339 0 0 1 744.09375 678.04688 A 4.4291339 4.4291339 0 0 1 739.66602 673.61719 A 4.4291339 4.4291339 0 0 1 744.09375 669.18945 z M 799.90625 669.18945 A 4.4291339 4.4291339 0 0 1 804.33594 673.61719 A 4.4291339 4.4291339 0 0 1 799.90625 678.04688 A 4.4291339 4.4291339 0 0 1 795.47852 673.61719 A 4.4291339 4.4291339 0 0 1 799.90625 669.18945 z M 855.71875 669.18945 A 4.4291339 4.4291339 0 0 1 860.14844 673.61719 A 4.4291339 4.4291339 0 0 1 855.71875 678.04688 A 4.4291339 4.4291339 0 0 1 851.28906 673.61719 A 4.4291339 4.4291339 0 0 1 855.71875 669.18945 z M 911.53125 669.18945 A 4.4291339 4.4291339 0 0 1 915.96094 673.61719 A 4.4291339 4.4291339 0 0 1 911.53125 678.04688 A 4.4291339 4.4291339 0 0 1 907.10156 673.61719 A 4.4291339 4.4291339 0 0 1 911.53125 669.18945 z M 1335.168 698.72266 C 1337.71 698.79056 1340.2593 699.74431 1342.4199 701.61328 C 1347.3583 705.88515 1347.8692 712.85977 1343.5938 717.81055 C 1339.3181 722.76134 1332.3466 723.26795 1327.4082 718.99609 C 1322.4697 714.72415 1321.9627 707.74962 1326.2383 702.79883 C 1328.6434 700.01401 1331.8996 698.63536 1335.168 698.72266 z M 632.4707 725.00195 A 4.4291339 4.4291339 0 0 1 636.89844 729.42969 A 4.4291339 4.4291339 0 0 1 632.4707 733.85938 A 4.4291339 4.4291339 0 0 1 628.04102 729.42969 A 4.4291339 4.4291339 0 0 1 632.4707 725.00195 z M 688.28125 725.00195 A 4.4291339 4.4291339 0 0 1 692.71094 729.42969 A 4.4291339 4.4291339 0 0 1 688.28125 733.85938 A 4.4291339 4.4291339 0 0 1 683.85352 729.42969 A 4.4291339 4.4291339 0 0 1 688.28125 725.00195 z M 744.09375 725.00195 A 4.4291339 4.4291339 0 0 1 748.52344 729.42969 A 4.4291339 4.4291339 0 0 1 744.09375 733.85938 A 4.4291339 4.4291339 0 0 1 739.66602 729.42969 A 4.4291339 4.4291339 0 0 1 744.09375 725.00195 z M 799.90625 725.00195 A 4.4291339 4.4291339 0 0 1 804.33594 729.42969 A 4.4291339 4.4291339 0 0 1 799.90625 733.85938 A 4.4291339 4.4291339 0 0 1 795.47852 729.42969 A 4.4291339 4.4291339 0 0 1 799.90625 725.00195 z M 855.71875 725.00195 A 4.4291339 4.4291339 0 0 1 860.14844 729.42969 A 4.4291339 4.4291339 0 0 1 855.71875 733.85938 A 4.4291339 4.4291339 0 0 1 851.28906 729.42969 A 4.4291339 4.4291339 0 0 1 855.71875 725.00195 z M 688.28125 780.81445 A 4.4291339 4.4291339 0 0 1 692.71094 785.24219 A 4.4291339 4.4291339 0 0 1 688.28125 789.67188 A 4.4291339 4.4291339 0 0 1 683.85352 785.24219 A 4.4291339 4.4291339 0 0 1 688.28125 780.81445 z M 744.09375 780.81445 A 4.4291339 4.4291339 0 0 1 748.52344 785.24219 A 4.4291339 4.4291339 0 0 1 744.09375 789.67188 A 4.4291339 4.4291339 0 0 1 739.66602 785.24219 A 4.4291339 4.4291339 0 0 1 744.09375 780.81445 z M 799.90625 780.81445 A 4.4291339 4.4291339 0 0 1 804.33594 785.24219 A 4.4291339 4.4291339 0 0 1 799.90625 789.67188 A 4.4291339 4.4291339 0 0 1 795.47852 785.24219 A 4.4291339 4.4291339 0 0 1 799.90625 780.81445 z M 744.09375 836.625 A 4.4291339 4.4291339 0 0 1 748.52344 841.05469 A 4.4291339 4.4291339 0 0 1 744.09375 845.48438 A 4.4291339 4.4291339 0 0 1 739.66602 841.05469 A 4.4291339 4.4291339 0 0 1 744.09375 836.625 z M 1403.8418 844.31641 C 1405.7487 844.36721 1407.6608 845.08266 1409.2812 846.48438 C 1412.9851 849.6883 1413.367 854.91973 1410.1602 858.63281 C 1406.9535 862.3459 1401.7272 862.72538 1398.0234 859.52148 C 1394.3195 856.31757 1393.9377 851.08614 1397.1445 847.37305 C 1398.9483 845.28443 1401.3901 844.25108 1403.8418 844.31641 z M 928.49023 846.04102 C 931.22914 846.14454 933.82194 847.60377 935.42383 850.21875 C 937.9868 854.40264 936.76174 859.498 932.58398 862.05273 C 928.40623 864.60745 923.30516 863.38116 920.74219 859.19727 C 918.17917 855.0133 919.40818 849.918 923.58594 847.36328 C 925.1526 846.40526 926.84689 845.9789 928.49023 846.04102 z M 567.62305 847.75586 C 570.36194 847.85937 572.95478 849.32061 574.55664 851.93555 C 577.11966 856.11952 575.8926 861.21285 571.71484 863.76758 C 567.53709 866.3223 562.43802 865.09609 559.875 860.91211 C 557.31203 856.72823 558.53904 851.63284 562.7168 849.07812 C 564.28345 848.1201 565.97971 847.69375 567.62305 847.75586 z M 1290.3164 849.89844 C 1291.5876 849.93224 1292.8631 850.40926 1293.9434 851.34375 C 1296.4127 853.4797 1296.6651 856.96795 1294.5273 859.44336 C 1292.3895 861.91876 1288.9048 862.17309 1286.4355 860.03711 C 1283.9663 857.90115 1283.7138 854.41289 1285.8516 851.9375 C 1287.0541 850.54509 1288.6821 849.85501 1290.3164 849.89844 z M 832.5957 888.83984 C 816.0957 888.83984 788.18281 896.95352 778.00781 902.72852 C 770.72031 907.95352 766.87148 911.94023 766.45898 918.67773 C 766.18398 923.35273 770.58398 925.68945 776.08398 925.68945 C 777.32148 925.68945 778.55742 925.55352 779.79492 925.41602 C 765.21992 951.67852 770.03359 942.46484 748.99609 991.27734 C 747.20859 994.71484 746.24492 997.60195 746.10742 999.93945 C 745.83242 1005.0269 750.23242 1007.3652 756.41992 1007.3652 C 760.26992 1007.3652 764.39492 1006.1269 769.48242 998.56445 C 778.83242 985.08945 793.95859 955.66563 805.37109 934.76562 L 812.38281 921.83984 C 813.62031 919.50234 819.39492 921.01523 823.79492 918.67773 C 833.14492 917.57773 832.45781 904.92695 838.50781 901.62695 C 841.25781 900.11445 842.49531 898.46523 842.63281 896.67773 C 842.77031 892.82773 837.8207 888.83984 832.5957 888.83984 z M 895.53125 889.25195 C 892.78125 889.25195 874.76914 892.69062 866.93164 896.26562 C 847.81914 906.44062 806.70625 981.24102 805.46875 994.85352 L 805.05664 996.50195 C 804.91914 1001.1769 811.10703 1004.0645 817.70703 1004.0645 C 823.06953 1004.0645 828.70781 1002.1406 830.63281 997.32812 L 834.89453 988.66602 C 837.36953 983.71602 840.67031 978.07852 844.38281 971.47852 C 850.43281 979.86602 849.19453 999.25195 859.64453 999.25195 C 861.01953 999.25195 862.53242 998.97695 864.04492 998.56445 C 867.61992 1000.0769 867.89531 1002.5527 870.50781 1002.5527 C 874.49531 1002.5527 880.40664 998.56523 880.68164 993.61523 C 881.09414 985.50273 872.56953 973.40352 868.58203 965.29102 L 868.58203 965.42773 L 867.07031 962.26562 C 891.68281 955.52814 911.75742 926.65195 912.85742 907.12695 C 913.26992 896.81445 907.90625 889.25195 895.53125 889.25195 z M 946.54883 889.71289 A 16.716536 16.716536 0 0 0 929.83203 906.42969 A 16.716536 16.716536 0 0 0 946.54883 923.14648 A 16.716536 16.716536 0 0 0 963.26562 906.42969 A 16.716536 16.716536 0 0 0 946.54883 889.71289 z M 532.57812 890.07812 C 521.30313 890.07812 506.17813 894.47695 492.01562 899.56445 C 486.37813 902.17695 487.75195 911.52695 483.62695 917.43945 C 463.96445 945.48945 451.58906 967.48984 446.22656 996.08984 C 446.08906 996.50234 445.95312 996.91563 445.95312 997.32812 C 445.40312 1007.3656 464.10195 1006.4023 469.87695 1006.4023 C 477.16445 1006.4023 483.35314 1005.4402 492.01562 1003.2402 L 491.87695 1003.2402 C 499.71445 1000.4902 507.27656 992.92773 507.41406 990.17773 C 507.41406 989.76523 507.27812 989.49102 507.14062 989.35352 C 505.07812 988.39102 504.38984 987.01564 504.52734 985.64062 C 504.52734 984.67813 504.94064 983.71445 505.07812 982.75195 C 505.07812 981.78945 504.66484 980.82812 503.15234 980.14062 C 497.51484 980.82812 494.21445 981.24023 490.50195 981.24023 C 488.71445 981.24023 477.85273 981.37852 477.99023 979.04102 C 478.26523 975.05352 486.65313 963.22773 489.95312 959.24023 C 499.57812 958.69023 495.72695 958.55273 502.87695 957.17773 L 502.74023 957.17773 C 510.71523 954.56523 515.93945 947.69023 518.68945 942.05273 C 518.96445 941.50273 519.24023 940.95273 519.24023 940.67773 C 519.24023 939.57773 518.27734 939.30273 516.90234 939.30273 C 513.73984 939.30273 508.78945 940.54102 504.25195 940.54102 C 502.73945 940.54102 501.08906 940.26445 499.16406 939.43945 L 500.81445 935.86523 C 502.46445 932.01523 504.80156 928.57852 508.10156 924.72852 L 508.92773 923.76562 C 512.36523 919.64062 515.93906 918.40273 525.97656 915.92773 C 537.25156 914.27773 545.91445 904.10313 546.18945 896.95312 C 546.46445 893.51562 544.40313 890.76445 539.45312 890.62695 L 539.31445 890.62695 C 537.11445 890.35195 534.77813 890.07812 532.57812 890.07812 z M 671.41992 890.07812 C 660.14492 890.07812 645.01992 894.47695 630.85742 899.56445 C 625.21992 902.17695 626.5957 911.52695 622.4707 917.43945 C 602.8082 945.48945 590.43281 967.48984 585.07031 996.08984 C 584.93281 996.50234 584.79492 996.91563 584.79492 997.32812 C 584.24492 1007.3656 602.9457 1006.4023 608.7207 1006.4023 C 616.0082 1006.4023 622.19492 1005.4402 630.85742 1003.2402 L 630.7207 1003.2402 C 638.5582 1000.4902 646.12031 992.92773 646.25781 990.17773 C 646.25781 989.76523 646.11992 989.49102 645.98242 989.35352 C 643.91992 988.39102 643.23164 987.01564 643.36914 985.64062 C 643.36914 984.67813 643.78242 983.71445 643.91992 982.75195 C 643.91992 981.78945 643.50664 980.82812 641.99414 980.14062 C 636.35664 980.82812 633.0582 981.24023 629.3457 981.24023 C 627.5582 981.24023 616.69453 981.37852 616.83203 979.04102 C 617.10703 975.05352 625.49492 963.22773 628.79492 959.24023 C 638.41992 958.69023 634.5707 958.55273 641.7207 957.17773 L 641.58203 957.17773 C 649.55703 954.56523 654.7832 947.69023 657.5332 942.05273 C 657.8082 941.50273 658.08203 940.95273 658.08203 940.67773 C 658.08203 939.57773 657.11914 939.30273 655.74414 939.30273 C 652.58164 939.30273 647.6332 940.54102 643.0957 940.54102 C 641.5832 940.54102 639.93281 940.26445 638.00781 939.43945 L 639.6582 935.86523 C 641.3082 932.01523 643.64531 928.57852 646.94531 924.72852 L 647.76953 923.76562 C 651.20703 919.64062 654.78281 918.40273 664.82031 915.92773 C 676.09531 914.27773 684.7582 904.10313 685.0332 896.95312 C 685.3082 893.51562 683.24492 890.76445 678.29492 890.62695 L 678.1582 890.62695 C 675.9582 890.35195 673.61992 890.07812 671.41992 890.07812 z M 590.76758 891.31445 C 581.83008 891.31445 569.31758 896.40273 566.70508 902.17773 L 566.8418 902.04102 C 566.1543 903.27852 554.33008 921.29102 554.33008 921.29102 C 540.44258 941.09102 518.1668 981.10352 518.0293 987.29102 C 518.0293 988.25352 518.16836 988.93945 518.44336 989.62695 L 518.30469 989.62695 C 518.85469 990.86445 519.67969 992.65195 519.67969 995.81445 C 519.95469 1003.1019 523.94219 1004.3398 528.61719 1004.3398 C 529.71719 1004.3398 530.95469 1004.3406 532.05469 1004.2031 L 534.11719 1004.2031 C 540.16719 1004.2031 544.15508 1004.4785 547.45508 1004.4785 C 550.61758 1004.4785 553.23047 1004.2031 555.98047 1004.2031 C 560.65547 1004.2031 569.73086 1003.791 575.50586 995.54102 C 577.15586 993.20352 577.84297 991.55352 577.98047 990.04102 C 578.11797 986.32852 573.44258 985.08984 573.58008 980.96484 C 573.71758 980.68984 573.71797 980.27852 573.85547 979.72852 C 572.48047 979.04102 570.28047 978.35352 568.35547 978.35352 C 561.75547 978.35352 553.91758 981.92773 548.83008 981.92773 C 548.55508 981.51523 548.41719 981.23945 548.55469 980.68945 C 548.55469 980.55195 548.55569 980.41563 548.69336 980.14062 C 569.73086 947.00312 590.3543 925.00195 599.8418 901.62695 L 599.8418 901.76562 C 600.1168 900.66562 600.25508 899.56602 600.39258 898.60352 C 600.66758 893.37852 596.40508 891.31445 590.76758 891.31445 z M 743.08594 891.45312 C 735.66094 891.45312 727.41016 893.51484 719.84766 897.08984 C 698.26016 904.78984 665.26094 941.77695 663.33594 980.00195 C 662.37344 998.83945 674.61055 1004.6152 689.18555 1004.6152 C 698.94805 1004.6152 710.08633 1000.766 718.61133 996.22852 L 718.47266 996.22852 C 721.77266 993.89102 726.72383 990.86523 726.86133 988.11523 C 726.86133 986.46523 723.42305 986.46445 723.56055 984.12695 C 723.69805 982.20195 725.21016 979.58984 725.34766 977.52734 C 725.48516 973.95234 719.70977 973.26562 717.50977 973.26562 C 710.77227 973.26562 708.84844 978.62695 701.14844 978.62695 C 697.16094 978.62695 691.65977 975.60273 692.07227 968.17773 C 692.34727 962.67773 696.88594 949.75234 708.02344 937.65234 C 715.99844 928.98984 719.29883 927.20195 723.42383 925.00195 L 725.62305 923.90234 C 727.13555 923.21484 728.92383 923.07695 730.29883 922.93945 C 732.08633 922.93945 733.18633 923.76523 733.04883 926.92773 C 732.91133 929.81523 731.26055 932.42852 731.12305 934.35352 C 730.98555 937.79102 732.91133 939.99023 737.86133 939.99023 C 744.04883 939.99023 753.53633 936.41563 757.79883 929.26562 C 761.78633 922.52814 764.39805 915.24023 764.81055 909.74023 C 765.22305 900.11523 759.58633 893.37852 747.48633 891.72852 L 747.62305 891.72852 C 746.11055 891.59102 744.73594 891.45312 743.08594 891.45312 z M 1020.502 891.45312 C 1013.077 891.45312 1004.8281 893.51484 997.26562 897.08984 C 975.67813 904.78984 942.67695 941.77695 940.75195 980.00195 C 939.78945 998.83945 952.02656 1004.6152 966.60156 1004.6152 C 976.36406 1004.6152 987.50234 1000.766 996.02734 996.22852 L 995.89062 996.22852 C 999.19062 993.89102 1004.1398 990.86523 1004.2773 988.11523 C 1004.2773 986.46523 1000.8391 986.46445 1000.9766 984.12695 C 1001.1141 982.20195 1002.6281 979.58984 1002.7656 977.52734 C 1002.9031 973.95234 997.12773 973.26562 994.92773 973.26562 C 988.19023 973.26562 986.26445 978.62695 978.56445 978.62695 C 974.57695 978.62695 969.07773 975.60273 969.49023 968.17773 C 969.76523 962.67773 974.30195 949.75234 985.43945 937.65234 C 993.41445 928.98984 996.71487 927.20195 1000.8398 925.00195 L 1003.0391 923.90234 C 1004.5516 923.21484 1006.3398 923.07695 1007.7148 922.93945 C 1009.5023 922.93945 1010.6023 923.76523 1010.4648 926.92773 C 1010.3273 929.81523 1008.6766 932.42852 1008.5391 934.35352 C 1008.4016 937.79102 1010.3273 939.99023 1015.2773 939.99023 C 1021.4648 939.99023 1030.9523 936.41563 1035.2148 929.26562 C 1039.2023 922.52814 1041.8141 915.24023 1042.2266 909.74023 C 1042.6391 900.11523 1037.0023 893.37852 1024.9023 891.72852 L 1025.0391 891.72852 C 1023.5266 891.59102 1022.152 891.45312 1020.502 891.45312 z M 883.98242 910.29102 C 886.59492 910.29102 887.41992 912.62773 887.41992 913.86523 C 887.28242 916.47773 884.53203 918.95234 884.39453 921.15234 C 879.30703 931.73984 874.90781 933.52734 866.38281 937.65234 L 862.11914 940.40234 L 861.29492 939.71484 C 861.29492 939.71484 861.98203 937.92812 867.89453 927.20312 C 869.54453 924.59064 869.82031 923.48984 874.63281 916.33984 L 875.18164 915.92773 L 876.96875 914.55273 L 876.83203 914.55273 C 878.61953 912.62773 881.09492 910.29102 883.98242 910.29102 z M 241.38867 917.95312 C 244.12806 918.05637 246.7204 919.51591 248.32227 922.13086 C 250.88525 926.31477 249.65823 931.41012 245.48047 933.96484 C 241.30272 936.51956 236.20165 935.29327 233.63867 931.10938 C 231.07569 926.92546 232.30466 921.83011 236.48242 919.27539 C 238.04908 918.31737 239.74504 917.8912 241.38867 917.95312 z M 934.00391 930.22852 C 928.50391 930.22852 921.7668 932.42814 919.1543 936.82812 L 919.1543 936.96484 C 908.2918 949.75234 892.20352 982.20273 889.04102 993.61523 C 887.80352 996.36523 887.11602 998.56442 886.97852 1000.627 C 886.70352 1006.677 891.2418 1009.4277 895.7793 1009.4277 C 898.3918 1009.4277 901.00352 1008.4652 902.10352 1006.6777 C 906.22852 1001.3152 911.31719 1010.9406 918.74219 991.14062 C 923.41719 976.97812 937.03008 950.57734 943.76758 937.65234 L 943.76758 937.79102 C 943.90508 937.24102 943.9043 936.82852 943.9043 936.41602 C 944.1793 932.29102 939.50391 930.22852 934.00391 930.22852 z M 1344.8496 949.24219 C 1347.3923 949.30999 1349.9429 950.26385 1352.1035 952.13281 C 1357.042 956.40474 1357.5491 963.3793 1353.2734 968.33008 C 1348.9978 973.28087 1342.0303 973.78755 1337.0918 969.51562 C 1332.1532 965.2437 1331.6423 958.26915 1335.918 953.31836 C 1338.323 950.53355 1341.5805 949.15496 1344.8496 949.24219 z M 1251.2051 955.37891 C 1253.1117 955.43001 1255.0222 956.14712 1256.6426 957.54883 C 1260.3465 960.75273 1260.7301 965.98221 1257.5234 969.69531 C 1254.3166 973.4084 1249.0886 973.7879 1245.3848 970.58398 C 1241.681 967.38006 1241.2992 962.14863 1244.5059 958.43555 C 1246.3097 956.34694 1248.7537 955.31316 1251.2051 955.37891 z M 293.61523 971.63867 C 295.44133 971.70757 297.17037 972.68053 298.23828 974.42383 C 299.94693 977.21311 299.12892 980.6113 296.34375 982.31445 C 293.55858 984.0176 290.15982 983.19944 288.45117 980.41016 C 286.74252 977.6209 287.55858 974.22463 290.34375 972.52148 C 291.38819 971.8828 292.51957 971.59732 293.61523 971.63867 z "
       id="ellipse7222" />
  </g>
  <g
     inkscape:groupmode="layer"
     id="layer2"
     inkscape:label="Main"
     style="display:inline;opacity:1"
     transform="translate(0,-3.464567e-6)"
     sodipodi:insensitive="true" />
  <g
     inkscape:label="Pixels"
     inkscape:groupmode="layer"
     id="layer1"
     style="display:inline"
     transform="translate(0,-3.464567e-6)" />
  <g
     inkscape:groupmode="layer"
     id="layer4"
     inkscape:label="outline"
     style="display:inline"
     transform="translate(0,308.26772)"
     sodipodi:insensitive="true" />
</svg>
